<?xml version="1.0" standalone="no"?>
<!DOCTYPE svg PUBLIC "-//W3C//DTD SVG 20010904//EN"
 "http://www.w3.org/TR/2001/REC-SVG-20010904/DTD/svg10.dtd">
<svg version="1.0" xmlns="http://www.w3.org/2000/svg"
 width="1043.000000pt" height="1145.000000pt" viewBox="0 0 1043.000000 1145.000000"
 preserveAspectRatio="xMidYMid meet">

<g transform="translate(0.000000,1145.000000) scale(0.100000,-0.100000)"
fill="#000000" stroke="none">
<path d="M2035 11439 c-444 -19 -573 -47 -674 -148 -74 -74 -109 -178 -118
-356 -8 -158 5 -297 82 -897 83 -648 98 -731 179 -957 113 -311 132 -423 96
-551 -11 -41 -27 -106 -34 -145 -7 -38 -23 -86 -34 -105 -37 -62 -54 -163 -47
-275 6 -84 3 -119 -17 -215 -20 -102 -23 -142 -23 -355 0 -181 5 -268 18 -355
56 -356 140 -606 287 -856 33 -55 78 -147 99 -205 40 -106 81 -279 81 -343 0
-36 -27 -76 -52 -76 -7 0 -292 -140 -633 -311 -579 -291 -625 -312 -691 -320
-40 -4 -89 -17 -110 -28 -24 -13 -93 -28 -176 -41 -213 -31 -276 -48 -262 -72
15 -23 310 19 504 72 129 36 418 157 585 245 268 142 667 341 776 388 57 24
128 47 157 51 30 4 77 15 105 26 29 10 97 32 152 49 116 36 130 43 122 65 -8
21 -97 21 -152 0 -64 -26 -104 -29 -111 -10 -9 23 20 52 72 72 120 46 334 -26
334 -113 0 -35 25 -78 60 -103 17 -12 37 -36 44 -54 16 -39 60 -68 135 -90 71
-21 104 -20 131 2 l23 19 -18 94 c-32 169 -42 181 -179 198 -144 17 -151 43
-16 56 80 7 107 17 128 47 26 37 114 15 200 -49 35 -26 40 -44 17 -63 -32 -26
2 -104 94 -218 72 -89 68 -114 -10 -70 l-39 22 -28 -21 c-16 -12 -27 -30 -27
-44 0 -19 8 -26 40 -35 61 -19 116 -16 150 6 44 29 65 26 65 -10 0 -19 -7 -33
-19 -40 -11 -5 -89 -15 -173 -22 -84 -6 -157 -15 -163 -20 -5 -5 -10 -32 -11
-61 -1 -64 -22 -106 -83 -167 -32 -32 -59 -49 -84 -54 -28 -5 -51 -22 -89 -61
-55 -58 -100 -80 -142 -69 -48 12 -62 68 -21 78 59 15 91 137 61 233 -16 51
-21 56 -71 78 -29 13 -55 29 -57 35 -2 7 -43 18 -91 25 -101 15 -119 27 -152
100 -36 83 -137 157 -168 126 -19 -19 -12 -130 12 -189 19 -48 20 -56 7 -86
-18 -43 -24 -46 -110 -61 -100 -18 -242 -72 -456 -176 -250 -122 -422 -226
-523 -317 -45 -41 -109 -94 -143 -118 -147 -105 -408 -251 -602 -337 -77 -34
-98 -57 -52 -57 54 0 302 112 468 212 45 27 156 105 246 173 277 208 432 306
658 415 148 71 307 129 415 151 105 22 130 -6 143 -153 4 -48 13 -94 20 -103
8 -9 35 -27 61 -41 26 -13 57 -37 69 -54 12 -17 33 -35 46 -40 13 -5 24 -14
24 -20 0 -35 -263 -266 -458 -403 -60 -42 -207 -131 -328 -198 -338 -187 -506
-305 -804 -563 -208 -181 -410 -381 -410 -407 0 -24 84 41 306 238 183 162
298 255 479 391 294 221 555 377 555 334 0 -26 -18 -47 -94 -109 -257 -213
-856 -803 -856 -844 0 -25 98 61 435 381 442 419 684 638 773 696 71 47 296
161 434 219 104 44 116 47 177 43 47 -4 84 -14 127 -36 57 -29 134 -99 134
-123 0 -32 -109 -195 -175 -259 -25 -24 -45 -50 -45 -56 0 -7 -50 -88 -112
-181 -61 -92 -158 -242 -215 -332 -58 -91 -126 -192 -152 -225 -27 -34 -73
-110 -104 -171 -30 -60 -73 -141 -96 -180 -42 -72 -52 -115 -27 -115 21 0 69
62 111 144 94 180 357 596 526 833 256 359 340 457 382 451 25 -4 70 -66 62
-86 -14 -36 45 -98 112 -118 45 -13 54 -20 69 -55 19 -41 42 -50 64 -24 17 20
34 19 80 -7 l39 -23 32 24 c40 30 52 16 44 -54 -6 -58 13 -142 50 -215 32 -64
32 -81 -5 -108 -27 -21 -39 -47 -55 -124 -6 -30 -29 -37 -39 -12 -16 41 3 120
39 163 14 16 25 34 25 40 0 19 -49 12 -67 -9 -23 -26 -29 -25 -70 11 -43 37
-64 34 -80 -11 -15 -43 -16 -209 -2 -270 18 -78 63 -104 95 -55 18 28 39 32
48 10 3 -9 22 -23 42 -31 19 -8 43 -28 52 -44 9 -17 20 -30 24 -30 4 0 16 14
28 30 12 17 26 28 30 25 5 -3 19 -27 30 -53 27 -60 47 -82 78 -82 39 0 142
-61 197 -117 59 -60 189 -127 283 -145 110 -21 130 -29 203 -76 105 -68 317
-241 374 -304 103 -113 108 -185 29 -358 -41 -91 -48 -114 -48 -170 0 -59 4
-73 44 -145 44 -78 45 -82 47 -175 1 -52 2 -108 2 -123 1 -44 42 -77 95 -77
25 0 48 -5 52 -12 10 -15 -24 -38 -58 -38 -33 0 -108 -28 -108 -41 0 -4 -9
-13 -20 -19 -16 -8 -27 -7 -50 6 -24 15 -31 15 -44 5 -37 -31 -6 -122 49 -145
53 -23 68 -67 63 -186 -5 -108 -24 -164 -81 -226 -49 -56 -68 -98 -69 -155 0
-60 19 -92 69 -115 23 -12 53 -41 82 -83 68 -97 137 -167 196 -200 58 -33 78
-61 119 -169 29 -74 53 -101 74 -80 7 7 12 19 12 27 0 23 30 68 93 140 80 92
108 149 118 239 9 79 23 108 39 82 5 -8 10 -31 10 -50 0 -42 22 -78 57 -91 47
-17 81 21 67 76 -5 19 -19 32 -51 46 -54 23 -52 40 8 55 37 8 47 17 64 50 26
52 33 197 11 234 -34 57 -38 78 -39 205 0 187 24 243 80 183 31 -35 48 -74 72
-172 12 -49 28 -101 36 -117 23 -43 18 -72 -16 -105 -63 -59 -85 -152 -55
-237 8 -20 30 -61 49 -90 19 -28 42 -75 51 -103 25 -76 77 -158 104 -162 16
-3 22 2 22 15 0 24 41 88 110 173 93 114 122 209 85 280 -8 16 -40 57 -70 91
-59 66 -63 78 -40 132 8 19 19 79 24 134 10 110 16 129 60 198 17 27 31 58 31
68 0 11 -29 58 -64 106 -35 47 -66 95 -70 107 -4 12 2 40 14 66 10 24 22 71
26 104 7 62 31 121 59 144 52 43 64 151 25 233 -12 26 -43 65 -68 87 -41 37
-50 40 -102 40 -58 0 -120 15 -120 30 0 18 62 32 127 29 l68 -4 -3 42 c-3 36
1 43 27 63 27 19 31 27 31 71 0 37 7 60 26 89 19 28 29 62 37 121 l10 83 32
-38 32 -38 7 48 c4 33 19 68 46 108 45 66 60 110 60 178 0 64 -7 78 -41 78
-20 0 -35 9 -53 33 -32 42 -78 145 -71 158 4 5 19 9 35 9 37 0 50 23 50 88 0
110 -46 175 -116 165 -45 -7 -50 10 -19 78 23 53 25 62 13 86 -19 40 -53 42
-72 5 -37 -73 -44 -246 -10 -259 8 -3 26 5 40 17 l24 23 0 -64 c0 -66 -10 -89
-41 -89 -24 0 -36 -19 -44 -72 -6 -41 -5 -49 11 -54 54 -16 98 -73 91 -114 -6
-28 4 -51 39 -93 38 -45 33 -94 -14 -137 -22 -19 -41 -41 -43 -49 -4 -11 -36
-16 -125 -22 -164 -11 -199 -17 -228 -40 -33 -26 -33 -36 4 -74 21 -21 28 -37
24 -49 -9 -24 -93 -86 -117 -86 -17 0 -19 5 -13 44 5 30 2 56 -10 85 -19 49
-34 53 -34 9 0 -42 -13 -63 -34 -55 -9 4 -46 66 -81 139 -49 100 -67 148 -71
193 -11 101 -36 105 -78 15 l-21 -45 -3 90 c-4 110 3 155 24 155 9 0 18 -9 21
-20 8 -29 31 -25 39 6 4 15 5 79 2 143 -3 64 -3 127 1 141 12 45 35 29 53 -39
19 -72 41 -102 59 -84 7 7 14 86 20 205 4 106 11 223 14 259 9 86 25 113 25
41 0 -158 133 -209 158 -61 10 57 32 61 67 15 31 -40 45 -45 45 -17 0 33 11
51 31 51 10 0 19 -5 19 -11 0 -5 4 -7 10 -4 15 9 13 178 -2 193 -7 7 -27 12
-45 12 -20 0 -41 8 -53 20 -27 27 -35 25 -60 -10 -12 -16 -25 -30 -30 -30 -15
0 -30 71 -19 91 10 20 66 39 115 39 39 0 98 39 102 67 4 27 -33 53 -87 60 -49
7 -81 35 -81 71 0 55 30 64 103 32 l46 -20 53 20 c66 25 105 25 203 0 53 -13
111 -20 179 -20 56 0 118 -5 139 -11 52 -14 137 -96 137 -132 0 -29 -2 -30
-67 -27 -25 1 -52 -5 -68 -16 -25 -16 -27 -16 -41 5 -21 29 -51 26 -83 -8 -14
-15 -36 -31 -47 -35 -28 -9 -72 9 -106 41 -23 22 -30 24 -43 13 -13 -11 -12
-16 9 -40 28 -34 41 -92 26 -119 -22 -43 -110 21 -110 80 0 15 -4 30 -9 34
-11 6 -41 -21 -41 -37 0 -6 -13 -8 -35 -4 -32 6 -35 5 -35 -16 0 -37 57 -148
76 -148 9 0 30 11 46 25 38 32 52 24 33 -22 -19 -46 -19 -67 2 -110 24 -52 67
-75 126 -68 l47 6 -2 -108 c-3 -102 -1 -111 26 -166 23 -47 28 -66 24 -107 -6
-64 4 -81 32 -55 11 10 30 34 41 52 25 41 39 41 68 3 28 -39 41 -31 41 28 0
67 -14 109 -48 140 -21 20 -30 40 -35 76 -4 27 -15 58 -24 68 -15 17 -16 22
-3 51 10 21 15 68 15 132 1 55 2 108 3 118 3 29 40 20 58 -15 21 -42 54 -78
71 -78 8 0 13 12 13 31 0 20 4 29 13 27 23 -8 66 -104 107 -243 46 -153 64
-187 76 -141 11 46 -3 133 -32 193 -24 52 -26 61 -15 106 6 27 14 80 18 119 7
77 34 131 70 136 48 7 74 -72 32 -101 -23 -16 -49 -101 -49 -161 0 -34 2 -37
16 -25 25 21 54 85 61 136 l6 48 13 -30 c27 -64 8 -198 -41 -282 -22 -37 -25
-51 -23 -140 2 -98 -4 -125 -40 -165 -22 -26 -41 -22 -48 10 -14 55 -48 68
-84 32 -29 -29 -25 -65 10 -102 34 -35 37 -54 14 -86 -13 -19 -101 -72 -119
-72 -3 0 -5 26 -3 58 3 55 2 57 -22 57 -20 0 -29 -9 -43 -40 -43 -97 -53 -110
-90 -128 -38 -18 -38 -18 -23 -42 10 -15 16 -46 16 -84 0 -51 3 -62 22 -75 31
-22 36 -21 52 17 9 24 30 43 69 65 31 17 78 51 104 75 27 24 86 64 132 91 48
28 86 57 93 72 10 20 18 24 57 24 50 0 141 -37 179 -73 13 -12 26 -17 31 -11
24 25 72 161 80 225 5 39 16 78 25 88 26 28 44 140 59 362 16 227 20 242 96
359 24 36 63 107 87 158 65 135 105 167 161 127 24 -17 278 -350 407 -534 107
-154 291 -443 341 -536 20 -38 45 -78 56 -88 10 -9 36 -54 58 -100 22 -45 62
-107 89 -137 27 -30 59 -77 70 -104 24 -52 104 -166 146 -205 75 -70 19 47
-157 330 -112 181 -167 280 -182 329 -4 14 -27 51 -51 84 -24 32 -47 69 -50
83 -4 14 -25 44 -48 67 -23 24 -104 132 -181 242 -76 109 -189 267 -250 349
-194 262 -201 276 -171 331 44 82 71 89 169 48 140 -59 531 -255 609 -306 139
-91 256 -196 675 -611 222 -219 407 -396 413 -392 26 16 -41 93 -420 480 -221
226 -297 311 -287 321 25 26 366 -234 661 -505 237 -217 316 -273 316 -226 0
70 -597 570 -946 792 -185 118 -225 146 -314 221 -52 44 -149 130 -215 192
-108 101 -224 205 -298 267 -27 23 -27 24 -27 153 0 249 13 255 380 154 276
-75 487 -152 675 -246 130 -66 181 -104 495 -373 212 -182 258 -216 346 -257
60 -28 82 -33 166 -36 106 -5 146 2 116 19 -9 5 -61 18 -115 29 -167 33 -239
78 -499 309 -140 125 -232 195 -362 277 -111 70 -318 172 -445 219 -150 55
-474 144 -547 151 -123 10 -112 -2 -104 129 6 100 5 115 -9 115 -34 0 -98
-104 -113 -185 -10 -56 -38 -69 -129 -60 -182 17 -280 -39 -232 -132 9 -15 40
-56 71 -90 60 -66 64 -78 41 -123 -38 -73 -117 -93 -155 -40 -12 17 -36 36
-54 44 -68 28 -157 166 -181 281 -7 37 -19 72 -25 80 -6 7 -34 18 -63 25 -81
18 -85 20 -67 29 8 5 33 12 54 15 68 13 116 37 131 66 11 22 28 32 69 44 61
18 78 36 159 161 33 50 68 91 97 110 25 18 60 51 78 76 66 90 66 89 126 89 41
0 56 4 56 14 0 15 -21 26 -50 26 -46 0 -33 40 26 81 29 20 46 40 52 62 7 28
13 32 44 35 56 5 63 -16 63 -193 l0 -149 45 -17 c39 -14 46 -21 50 -50 5 -32
8 -34 57 -41 196 -28 833 -299 900 -383 15 -19 39 -37 54 -40 15 -3 58 -33 95
-66 128 -111 395 -225 591 -253 54 -8 112 -21 128 -30 17 -8 73 -22 125 -31
52 -8 134 -22 182 -30 89 -16 118 -13 118 11 0 14 -14 19 -84 28 -21 3 -47 13
-57 22 -12 11 -49 20 -110 26 -51 5 -119 18 -150 28 -32 11 -71 20 -86 20 -15
0 -64 13 -108 29 -81 28 -170 59 -258 87 -26 8 -137 74 -245 146 -349 231
-448 283 -707 371 -88 31 -177 62 -197 71 -21 9 -68 20 -105 26 -84 12 -97 25
-90 100 6 63 58 232 93 302 13 26 24 60 24 75 0 32 9 47 31 55 9 4 21 27 28
51 6 25 31 87 56 138 25 51 45 104 45 119 0 14 9 44 20 65 28 54 37 130 51
406 11 222 7 588 -7 637 -5 17 -9 20 -20 11 -19 -15 -32 -94 -43 -259 -6 -80
-15 -215 -21 -300 -19 -281 -36 -367 -79 -389 -33 -18 -106 -24 -130 -11 -20
10 -22 18 -18 63 2 29 15 95 29 147 30 111 53 282 69 505 12 159 12 160 -14
250 -15 50 -32 115 -38 145 -12 60 -27 95 -36 86 -14 -14 -20 -107 -12 -186
31 -313 31 -330 20 -462 -24 -265 -73 -419 -172 -535 -18 -21 -29 -49 -34 -84
-6 -45 -14 -60 -50 -94 -24 -22 -48 -50 -54 -62 -13 -25 -40 -30 -59 -11 -16
16 -15 104 2 160 7 25 27 63 44 84 17 22 42 74 56 117 14 42 46 118 71 167 63
125 78 219 79 475 0 207 -13 332 -40 373 -23 34 -74 62 -116 62 -30 0 -47 -8
-78 -36 -39 -35 -41 -36 -65 -20 -31 20 -39 52 -32 125 6 69 29 118 63 133 22
10 35 7 100 -25 85 -42 106 -45 151 -17 48 29 83 89 90 153 8 77 -1 107 -32
107 -13 0 -35 11 -49 25 -14 14 -36 25 -50 25 -66 0 -77 38 -18 67 20 10 41
28 47 41 5 12 15 22 21 22 34 0 111 -135 142 -247 28 -98 44 -131 93 -193 24
-30 59 -86 79 -125 40 -79 60 -94 60 -43 0 85 -74 317 -170 538 -76 174 -84
222 -50 332 12 40 35 99 52 131 16 33 35 90 43 128 7 38 17 75 23 82 5 6 15
31 21 53 14 54 95 726 121 1009 21 230 31 294 55 385 67 250 -112 535 -380
605 -33 8 -98 15 -145 15 -127 0 -193 15 -308 71 -123 60 -161 73 -178 58 -7
-6 -52 -19 -101 -29 -130 -27 -305 -83 -504 -160 -182 -71 -366 -131 -541
-176 l-100 -26 -97 17 c-101 18 -236 57 -285 82 -16 8 -67 21 -114 29 -46 7
-89 18 -96 23 -19 16 -86 29 -221 46 -71 8 -206 27 -300 42 -168 26 -173 26
-389 14 -259 -14 -357 -25 -451 -51 -38 -11 -121 -27 -184 -35 -63 -9 -168
-27 -234 -41 -66 -13 -134 -24 -151 -24 -30 0 -460 74 -501 86 -11 3 -27 14
-35 24 -8 10 -46 28 -85 40 -38 13 -206 76 -373 142 -166 65 -339 127 -385
138 -88 21 -117 22 -422 9z m3301 -1250 c84 -81 100 -126 35 -99 -44 18 -121
104 -121 135 0 14 5 25 11 25 6 0 39 -28 75 -61z m-228 -10 c3 -64 -12 -89
-54 -89 -32 0 -84 -27 -182 -94 -44 -30 -95 -57 -113 -61 -57 -12 -111 -50
-189 -132 -141 -148 -268 -337 -330 -495 -39 -100 -62 -140 -157 -280 -74
-110 -99 -171 -88 -217 8 -33 47 -91 61 -91 6 0 35 41 65 91 57 98 161 219
175 206 5 -5 12 -48 15 -95 12 -171 74 -208 144 -87 15 25 31 45 35 45 4 0 14
-24 20 -52 7 -29 23 -80 36 -112 33 -83 31 -96 -22 -140 l-46 -39 6 -66 c5
-47 2 -81 -9 -118 -15 -50 -23 -60 -117 -149 -19 -18 -41 -67 -78 -178 -49
-149 -72 -198 -85 -185 -3 4 -12 87 -20 185 -8 99 -22 206 -30 239 -38 145
-111 247 -215 300 -96 49 -187 65 -359 65 -301 0 -684 -35 -744 -68 -25 -13
-56 -17 -137 -17 -92 0 -112 3 -161 26 -75 35 -102 74 -98 142 4 86 0 104 -28
137 -25 31 -28 31 -85 25 -68 -8 -88 2 -88 47 0 69 116 232 238 333 48 40 74
55 92 53 24 -3 25 -7 30 -80 6 -99 17 -110 196 -208 147 -81 214 -133 214
-169 0 -38 18 -61 48 -61 94 0 54 133 -85 281 -113 122 -140 193 -108 291 37
112 296 325 575 472 133 70 215 100 365 137 66 15 191 49 279 74 87 25 172 45
189 45 16 0 68 -18 116 -39 112 -51 164 -64 215 -56 57 9 139 51 228 118 109
80 212 129 263 124 17 -2 20 -10 23 -58z m36 -154 c19 -39 18 -106 -1 -112
-20 -7 -53 58 -53 105 0 34 3 42 19 42 12 0 25 -13 35 -35z m513 15 c32 -25
129 -27 278 -5 154 22 231 20 317 -11 40 -15 112 -37 160 -50 146 -39 378
-169 602 -338 204 -154 328 -285 388 -411 50 -106 32 -171 -77 -275 -60 -57
-75 -87 -75 -147 l0 -48 30 37 c35 42 101 84 183 117 31 13 74 39 94 57 20 19
44 34 54 34 28 0 38 23 41 95 4 84 16 91 78 43 57 -43 125 -144 146 -214 9
-31 25 -65 36 -76 19 -19 19 -20 -5 -42 -33 -30 -48 -63 -82 -166 -47 -147
-54 -155 -158 -171 -34 -5 -84 -21 -110 -34 -27 -14 -54 -25 -60 -25 -7 0 -49
19 -94 41 -68 34 -106 45 -220 65 -286 48 -630 68 -696 40 -68 -28 -231 -230
-273 -337 -27 -69 -38 -78 -108 -81 -77 -4 -80 -14 -33 -117 34 -74 165 -491
214 -681 46 -179 32 -398 -27 -430 -10 -6 -37 -10 -59 -10 -40 0 -41 -1 -41
-35 0 -28 -5 -38 -24 -47 -25 -11 -40 -34 -31 -48 2 -4 18 -10 35 -13 16 -4
30 -11 30 -17 0 -16 -64 -40 -107 -40 -37 0 -57 -5 -208 -50 -47 -14 -122 -24
-229 -30 -157 -10 -267 -23 -316 -38 -14 -4 136 -9 332 -12 343 -5 358 -6 385
-26 22 -17 28 -29 28 -60 0 -31 -5 -41 -27 -53 -25 -15 -31 -14 -83 13 -53 27
-60 28 -111 17 -121 -24 -273 -126 -355 -238 -43 -57 -76 -70 -83 -30 -14 77
-22 102 -31 100 -5 -1 -11 -13 -13 -25 -2 -13 -14 -33 -28 -46 -17 -16 -24
-34 -24 -60 0 -47 -21 -81 -37 -60 -6 7 -18 38 -28 68 -39 122 -144 240 -214
240 -11 0 -43 20 -70 44 -27 24 -59 47 -70 51 -12 3 -21 14 -21 24 0 29 52 45
123 38 106 -10 230 14 204 39 -3 3 -42 10 -87 15 -45 5 -107 19 -138 30 -89
32 -171 49 -247 49 -140 1 -179 19 -136 64 47 50 155 63 666 76 379 10 615 23
649 36 25 9 14 28 -22 39 -18 5 -35 17 -38 27 -5 18 -14 21 -89 33 -21 4 -52
13 -67 21 -15 8 -69 24 -119 35 -74 17 -99 28 -129 55 -35 32 -42 34 -96 32
-58 -3 -59 -2 -62 25 -4 33 -15 33 -84 6 -73 -30 -237 -38 -292 -15 -51 21
-51 21 -87 -19 -51 -56 -90 -43 -155 50 -31 45 -35 57 -24 70 7 8 18 15 26 15
24 0 26 21 4 42 -20 19 -21 26 -15 114 7 86 6 94 -10 94 -10 0 -37 -18 -61
-40 -27 -25 -49 -37 -59 -34 -24 10 -18 58 15 102 17 23 30 48 30 56 0 8 -22
41 -48 73 -27 32 -54 69 -61 81 -25 47 14 72 48 31 l16 -20 22 23 c12 13 27
46 33 73 6 28 16 70 21 95 14 62 51 107 99 120 22 6 44 19 50 30 6 10 31 25
58 32 46 13 47 14 50 58 5 61 17 73 67 66 61 -10 74 5 83 94 l7 75 53 3 c43 3
52 6 52 22 0 10 -9 21 -20 25 -11 4 -32 33 -50 73 -18 37 -49 83 -71 103 -38
36 -39 38 -39 108 0 39 2 71 4 71 3 0 12 -24 21 -52 34 -104 69 -101 58 3 -3
31 -1 59 4 62 5 3 28 1 51 -5 24 -6 46 -8 49 -4 4 4 -5 55 -20 114 -26 104
-36 233 -19 258 4 6 16 14 28 18 12 3 26 16 31 29 10 21 11 20 23 -18 6 -22
15 -104 18 -182 5 -88 12 -147 19 -154 20 -20 41 -2 53 43 10 35 9 52 -5 100
-15 48 -16 62 -5 88 13 31 37 50 63 50 11 0 15 -10 14 -34 -1 -23 8 -46 26
-69 32 -43 33 -53 6 -67 -15 -9 -19 -19 -17 -43 5 -54 33 -46 69 18 31 55 41
63 104 81 39 12 75 67 75 114 0 21 -9 57 -20 81 -34 76 -21 169 23 169 16 0
51 -24 100 -67 20 -18 46 -33 57 -33 11 0 27 -11 36 -25 10 -15 26 -25 40 -25
36 0 76 -97 128 -308 24 -101 58 -211 74 -245 51 -110 134 -183 118 -104 -38
185 -46 329 -25 426 11 51 29 76 58 76 28 0 15 53 -38 160 -71 142 -164 278
-248 363 -40 39 -77 72 -83 72 -12 0 -12 -38 -1 -98 5 -23 5 -45 1 -47 -13 -8
-78 72 -110 136 -19 36 -33 81 -35 110 -2 34 -16 72 -44 123 -39 70 -49 105
-34 119 13 14 55 7 80 -13z m-293 -72 c29 -69 32 -92 14 -86 -21 7 -58 81 -58
116 0 49 14 39 44 -30z m-456 -494 c4 -29 -35 -76 -62 -72 -28 4 -34 52 -10
79 24 26 68 22 72 -7z m320 -87 c2 -19 -1 -27 -13 -27 -19 0 -30 24 -21 46 9
23 31 11 34 -19z m-418 -16 c0 -11 5 -32 10 -46 l10 -27 47 38 46 38 -7 -39
c-4 -22 -10 -66 -13 -97 -9 -94 -49 -102 -104 -22 -38 56 -46 101 -25 142 19
36 36 42 36 13z m-2773 -722 c7 -15 16 -41 19 -58 6 -30 5 -31 -30 -31 -20 0
-36 -4 -36 -10 0 -5 -21 -35 -46 -66 -78 -96 -136 -318 -133 -509 1 -74 -4
-120 -19 -177 -33 -123 -35 -193 -13 -468 24 -305 38 -385 86 -491 42 -92 53
-165 35 -238 -16 -66 -40 -69 -76 -8 -14 23 -55 64 -91 91 -35 27 -71 62 -79
78 -30 58 -41 166 -74 718 -28 473 -31 436 35 566 30 60 73 142 95 182 26 48
40 86 40 110 0 74 85 208 193 305 48 43 76 44 94 6z m1475 -160 c21 -11 53
-33 71 -49 34 -29 34 -29 52 -10 27 30 88 26 158 -10 107 -54 167 -115 167
-171 0 -62 -87 -129 -166 -129 -63 0 -76 18 -94 123 -14 76 -37 114 -65 103
-19 -7 -18 -29 6 -174 17 -97 26 -104 153 -112 129 -9 155 -23 173 -93 6 -25
14 -51 18 -57 3 -5 33 -10 66 -10 32 0 59 -3 59 -6 0 -3 -16 -24 -35 -47 -41
-48 -65 -117 -91 -266 l-18 -104 23 -16 c62 -45 63 -46 63 -89 0 -22 -6 -51
-13 -64 -21 -42 -73 -88 -110 -98 -32 -9 -38 -15 -48 -55 -8 -32 -22 -53 -51
-77 -29 -23 -44 -44 -51 -73 -6 -24 -31 -68 -57 -100 -26 -31 -56 -72 -67 -91
-31 -50 -101 -100 -188 -135 -43 -18 -138 -67 -210 -110 -72 -44 -139 -79
-148 -79 -9 0 -22 7 -29 15 -25 30 16 91 112 171 107 89 129 114 203 229 32
50 86 124 120 165 81 97 209 220 228 220 19 0 37 51 37 107 0 61 37 238 61
293 11 25 34 59 50 76 64 66 17 96 -198 124 -305 40 -525 124 -670 254 -122
110 -134 250 -16 201 53 -22 91 -62 103 -107 13 -44 50 -76 141 -117 133 -60
267 -78 310 -41 21 17 22 21 9 30 -8 5 -25 10 -38 10 -68 0 -342 193 -342 241
0 12 116 93 185 129 61 32 71 32 137 -1z m3433 -90 c73 -23 135 -71 135 -103
0 -59 -248 -236 -331 -236 -53 0 -64 19 -69 131 -3 64 -9 104 -16 106 -13 4
-32 -43 -59 -139 -26 -97 -86 -116 -156 -50 -52 48 -63 106 -31 168 44 86 116
124 251 131 53 3 103 10 111 14 20 12 91 3 165 -22z m379 -191 c0 -75 -19
-121 -69 -172 -81 -84 -224 -140 -502 -195 -225 -46 -219 -41 -182 -133 18
-45 20 -68 16 -148 -4 -93 -28 -180 -49 -180 -14 0 -59 105 -116 272 -74 213
-106 338 -92 352 7 7 101 13 273 18 369 9 443 31 577 168 41 42 84 82 95 88
32 17 49 -8 49 -70z m806 -72 c0 -8 -31 -36 -41 -36 -5 0 -9 9 -9 20 0 15 7
20 25 20 14 0 25 -2 25 -4z m-6129 -568 c6 -272 12 -377 23 -420 17 -63 159
-353 200 -407 20 -27 26 -46 26 -88 0 -80 -16 -78 -114 19 -97 95 -127 149
-169 313 -53 203 -71 343 -71 570 l-1 210 33 57 c17 32 32 71 32 86 0 33 10
46 23 33 5 -5 13 -173 18 -373z m581 265 c20 -18 24 -63 6 -81 -18 -18 -48
-15 -54 6 -3 9 -11 27 -16 39 -22 46 24 73 64 36z m5042 -145 c24 -39 29 -68
13 -68 -18 0 -67 56 -67 76 0 22 38 16 54 -8z m-3516 -99 c-23 -15 -33 9 -12
32 l19 21 3 -22 c2 -13 -2 -26 -10 -31z m2470 -529 c21 -13 35 -31 38 -49 4
-20 15 -33 34 -41 34 -14 57 -38 61 -65 2 -11 21 -28 42 -38 29 -15 36 -23 32
-38 -3 -10 1 -39 10 -65 14 -42 14 -52 0 -108 -23 -90 -53 -144 -94 -172 -20
-13 -45 -31 -57 -39 -22 -16 -49 -12 -57 10 -3 7 6 37 20 66 36 77 26 148 -31
226 -15 21 -29 63 -40 121 -9 49 -23 113 -33 142 -14 44 -15 53 -2 61 22 13
41 11 77 -11z m-298 -220 c0 -24 -29 -38 -40 -20 -12 19 -1 40 21 40 12 0 19
-7 19 -20z m880 -41 c0 -5 13 -14 28 -20 25 -8 99 -91 129 -143 14 -26 0 -56
-28 -56 -11 0 -37 9 -59 20 -50 26 -98 26 -125 0 -23 -22 -50 -19 -59 7 -4 9
6 41 21 72 15 31 26 62 26 70 -3 33 17 61 42 61 14 0 25 -5 25 -11z m-3310
-24 c16 -19 4 -52 -25 -71 -30 -19 -58 -11 -75 21 -12 22 -11 27 5 45 21 24
77 27 95 5z m2825 -501 c29 -31 31 -57 10 -107 -8 -20 -15 -61 -15 -92 0 -31
-7 -69 -15 -84 -39 -76 -199 -173 -315 -192 -105 -17 -106 -42 -2 -55 66 -8
149 0 272 27 89 20 98 20 133 5 51 -21 74 -71 53 -120 -17 -41 -47 -63 -153
-110 -69 -31 -97 -38 -187 -45 -75 -5 -111 -13 -124 -24 -10 -9 -34 -20 -53
-23 -47 -9 -69 -22 -69 -40 0 -31 51 -34 434 -32 209 2 391 -1 403 -5 32 -12
38 -42 16 -80 -22 -37 -76 -70 -149 -92 -80 -23 -363 -83 -429 -90 -87 -10
-99 -14 -84 -31 17 -21 97 -41 234 -59 238 -32 331 -59 341 -101 9 -36 -24
-72 -100 -109 -86 -42 -161 -62 -286 -76 -103 -12 -168 -3 -282 40 -31 11 -98
25 -150 31 -109 13 -155 24 -368 91 -87 27 -187 55 -222 62 -61 12 -64 14 -85
57 -57 116 -58 415 -2 597 26 83 89 154 157 177 25 9 80 38 122 66 82 53 119
70 155 70 14 0 41 9 62 19 27 14 69 22 148 26 119 7 185 20 185 35 0 6 18 17
40 26 27 11 77 55 158 140 65 68 124 124 131 124 6 0 23 -12 36 -26z m-2316
-253 c46 -30 61 -34 163 -42 141 -11 186 -20 340 -70 67 -21 131 -39 140 -39
10 0 22 -9 28 -20 6 -11 27 -29 48 -39 20 -10 47 -30 59 -43 114 -123 149
-516 60 -687 -30 -59 -101 -113 -184 -140 -50 -17 -89 -21 -182 -21 -101 0
-128 -4 -183 -24 -36 -14 -109 -29 -163 -35 -64 -8 -123 -22 -171 -41 -103
-41 -215 -54 -424 -47 -254 8 -291 17 -430 109 -64 42 -67 46 -132 177 -63
125 -78 168 -62 184 14 14 68 -31 122 -101 95 -124 174 -153 366 -132 231 24
347 54 354 92 4 23 -35 41 -133 63 -101 22 -237 71 -270 97 -29 23 -33 58 -7
80 49 43 125 46 467 22 256 -17 295 -13 320 36 15 29 15 31 -10 40 -15 6 -43
10 -63 10 -20 0 -59 12 -87 25 -32 16 -67 25 -98 25 -103 0 -284 51 -334 94
-74 64 42 116 350 157 325 43 332 60 48 124 -63 14 -120 30 -128 36 -26 22
-14 88 26 133 25 29 106 18 170 -23z m1096 -51 c10 -16 -14 -40 -41 -40 -26 0
-38 14 -30 35 6 17 62 20 71 5z m1969 -136 c11 -28 6 -100 -8 -119 -8 -11 -19
-16 -30 -12 -21 8 -22 77 -1 117 17 33 30 38 39 14z m-5208 -680 c79 -53 139
-124 104 -124 -18 0 -106 48 -139 75 -29 25 -39 53 -24 68 10 11 18 9 59 -19z
m5684 -60 c0 -25 -56 -94 -77 -94 -23 0 -14 33 19 67 28 29 58 43 58 27z
m-5460 -91 c59 -40 57 -70 -3 -59 -40 8 -87 41 -87 62 0 20 60 18 90 -3z
m5585 -237 c28 -18 106 -88 175 -156 93 -91 121 -124 108 -127 -30 -8 -460
178 -487 210 -17 22 -4 39 58 79 58 36 85 35 146 -6z m-5620 -155 c0 -53 0
-54 -30 -55 -18 -1 -51 -16 -80 -37 -59 -42 -82 -52 -91 -38 -16 27 148 194
185 187 12 -3 16 -15 16 -57z m1196 -83 c27 -45 18 -84 -31 -130 -30 -30 -47
-38 -75 -38 -84 0 -99 49 -39 131 41 56 58 68 97 69 20 0 32 -8 48 -32z m3287
-50 c18 -18 14 -53 -8 -73 -39 -35 -70 27 -33 67 19 21 25 22 41 6z m-3151
-110 c6 -7 13 -30 16 -52 3 -21 13 -46 22 -56 21 -24 19 -37 -11 -56 -34 -23
-48 -7 -45 52 l2 46 -43 -7 c-65 -12 -69 -11 -81 7 -16 24 15 55 67 67 58 13
62 13 73 -1z m1724 -36 c57 -58 66 -86 49 -169 -14 -72 -8 -108 20 -123 27
-15 25 -35 -6 -59 -33 -26 -39 -26 -63 -2 -13 13 -22 41 -27 80 -7 63 -15 76
-49 83 -31 5 -29 35 4 74 17 19 31 38 31 42 0 4 -11 25 -25 47 -53 86 -11 104
66 27z m1419 -2 c35 -35 21 -99 -32 -146 -34 -31 -62 -34 -99 -12 -27 17 -36
18 -56 7 -20 -11 -26 -10 -46 9 -12 11 -30 34 -39 50 l-18 29 42 6 c30 4 50
14 68 35 31 36 41 40 108 41 39 1 57 -4 72 -19z m-1821 -77 c80 -87 70 -87
124 -4 28 44 52 60 68 44 14 -14 -27 -82 -90 -150 -36 -40 -71 -56 -71 -32 0
5 -16 17 -35 25 -23 9 -40 25 -49 47 -7 19 -26 46 -40 61 -28 27 -28 61 -2 78
19 13 22 10 95 -69z m556 -3 c0 -66 -10 -84 -31 -56 -17 24 -19 107 -2 124 21
21 33 -5 33 -68z m-851 44 c29 -11 17 -43 -25 -72 -22 -15 -70 -49 -107 -76
-87 -64 -141 -83 -192 -67 -48 14 -92 64 -88 100 3 23 8 26 45 29 27 2 47 10
55 21 23 32 59 43 177 56 64 7 117 13 118 14 1 0 8 -2 17 -5z m-816 -75 c5
-25 -60 -113 -91 -123 -40 -14 -52 2 -37 48 19 60 57 98 94 94 18 -2 32 -9 34
-19z m1336 -52 c12 -19 3 -32 -19 -24 -17 7 -21 51 -3 45 6 -2 16 -12 22 -21z
m-497 -13 c4 -11 -1 -22 -12 -30 -22 -17 -25 -17 -45 -4 -13 9 -12 13 9 30 28
24 40 25 48 4z m-1494 -26 c7 -21 -4 -38 -23 -38 -10 0 -20 6 -23 13 -7 20 4
37 23 37 10 0 20 -6 23 -12z m3710 -2 c3 -7 0 -19 -6 -25 -15 -15 -57 -14 -57
2 0 32 52 51 63 23z m-1765 -63 c4 -25 -22 -37 -38 -17 -10 11 -10 17 0 29 17
20 34 14 38 -12z m1838 -8 c19 -29 11 -44 -14 -29 -19 12 -29 54 -13 54 6 0
18 -11 27 -25z m-1834 -74 l33 -7 -35 -22 c-50 -31 -64 -25 -68 28 -3 44 -3
44 17 26 11 -10 35 -22 53 -25z m1028 -7 c0 -9 -17 -34 -39 -55 -21 -22 -46
-39 -55 -39 -20 0 -20 4 -1 40 27 52 95 91 95 54z m-1240 -75 c0 -10 -6 -19
-14 -19 -15 0 -29 27 -21 40 9 15 35 -1 35 -21z m50 -59 c0 -23 -14 -45 -55
-90 -30 -33 -55 -64 -55 -70 0 -5 -9 -19 -21 -31 -16 -16 -23 -18 -35 -8 -31
26 -3 82 89 177 59 60 77 65 77 22z m-865 -50 c6 -20 -9 -59 -29 -72 -14 -10
-36 10 -36 34 0 50 51 81 65 38z m2065 -24 c0 -46 -14 -66 -33 -47 -12 12 8
91 23 91 6 0 10 -20 10 -44z m-2400 10 c0 -28 -12 -46 -47 -67 -47 -30 -63
-13 -34 35 12 19 27 37 34 40 24 9 47 6 47 -8z m1558 -28 c22 -22 8 -78 -20
-78 -4 0 -8 20 -8 45 0 46 7 54 28 33z m-650 -31 c4 -20 -25 -34 -40 -19 -15
15 -1 44 19 40 10 -2 19 -11 21 -21z m-727 -92 c3 -33 12 -86 18 -118 18 -88
-6 -265 -44 -323 -18 -28 -51 -31 -83 -8 -34 23 -28 62 16 107 36 37 37 40 37
110 0 40 -3 117 -5 172 -5 108 0 128 33 123 19 -3 23 -11 28 -63z m704 -14
l10 -53 27 56 c15 31 34 56 41 56 7 0 21 -14 31 -30 17 -31 17 -31 -14 -92
-31 -58 -31 -63 -17 -88 9 -15 15 -40 14 -55 -1 -21 3 -30 16 -33 14 -3 17 4
17 47 0 55 24 83 61 74 35 -10 41 -48 19 -120 -11 -36 -20 -80 -20 -99 0 -35
-18 -84 -31 -84 -11 0 -19 28 -19 65 0 39 -14 52 -35 35 -20 -16 -19 -55 1
-85 9 -14 20 -65 26 -127 15 -163 18 -182 28 -198 8 -13 12 -13 27 3 14 14 19
37 21 109 2 83 6 100 52 208 27 64 56 146 64 181 9 35 20 65 25 67 6 2 25 13
43 26 41 27 47 60 17 92 -21 22 -21 24 -5 49 20 31 58 50 81 41 14 -5 15 -16
9 -74 -5 -58 -3 -77 15 -117 24 -54 26 -77 10 -108 -12 -20 -13 -20 -46 18
-32 39 -34 39 -48 21 -21 -27 -19 -39 15 -103 17 -31 30 -65 30 -77 0 -33 -22
-68 -54 -85 -22 -12 -32 -29 -41 -64 -7 -26 -21 -58 -32 -70 -29 -32 -43 -62
-43 -94 0 -58 -111 -203 -156 -203 -61 0 -87 67 -86 220 1 115 -10 190 -28
190 -16 0 -38 -42 -64 -116 -29 -85 -48 -124 -73 -147 -19 -16 -20 -16 -35 0
-9 10 -19 33 -23 51 -8 39 -17 33 -35 -22 -12 -37 -14 -38 -26 -21 -22 30 -17
67 18 135 30 58 33 70 33 160 0 85 -3 102 -27 148 -22 43 -25 57 -17 85 11 39
51 87 73 87 22 0 52 44 72 103 21 63 43 99 58 94 6 -2 15 -27 21 -56z m-565
24 c0 -18 -5 -25 -20 -25 -23 0 -24 4 -10 31 15 27 30 24 30 -6z m370 -40 c7
-8 9 -22 6 -31 -5 -13 -9 -14 -21 -4 -16 13 -21 50 -6 50 5 0 14 -7 21 -15z
m773 -47 c13 -19 2 -48 -17 -48 -9 0 -18 11 -22 24 -11 44 17 60 39 24z
m-1523 -33 c0 -21 9 -48 22 -66 28 -38 15 -65 -29 -62 -27 2 -30 0 -25 -22 5
-27 -12 -35 -22 -9 -10 25 -7 140 4 168 6 16 17 26 30 26 16 0 20 -7 20 -35z
m660 -93 c0 -27 -10 -53 -30 -83 -16 -24 -30 -56 -30 -70 0 -31 -23 -64 -38
-55 -32 20 -1 146 52 212 35 44 46 43 46 -4z m-862 -14 c20 -20 14 -38 -13
-38 -26 0 -29 7 -19 34 7 19 16 20 32 4z m634 -173 c35 -26 83 -52 117 -61 31
-9 67 -23 80 -31 35 -22 11 -33 -76 -33 -66 0 -75 -3 -106 -30 -41 -36 -43
-36 -58 -7 -29 53 -49 207 -28 207 6 0 38 -20 71 -45z m-142 -91 c0 -16 -26
-19 -35 -4 -4 6 -4 18 -1 27 5 12 9 13 21 3 8 -7 15 -19 15 -26z m1361 -567
c72 -48 88 -139 34 -193 -33 -33 -97 -33 -130 0 -41 41 -46 138 -10 192 20 31
61 31 106 1z m473 -63 c25 -9 19 -33 -15 -65 -26 -24 -30 -33 -24 -59 7 -33 4
-36 -28 -18 -12 6 -53 14 -92 17 -85 7 -92 25 -19 50 28 9 72 31 99 49 52 34
55 35 79 26z m-794 -49 c34 -18 47 -50 29 -72 -17 -20 -83 -12 -111 14 -22 20
-38 54 -31 66 7 13 83 8 113 -8z m10 -198 c0 -18 -6 -42 -14 -52 -13 -18 -15
-18 -40 -1 -16 10 -41 16 -59 14 -23 -2 -32 1 -32 12 0 19 80 60 117 60 25 0
28 -4 28 -33z m519 9 c15 -16 15 -18 -2 -28 -16 -8 -18 -17 -12 -54 7 -49 1
-53 -47 -28 -41 21 -67 13 -112 -36 -21 -23 -43 -39 -49 -37 -7 2 -21 20 -32
40 -18 34 -19 39 -5 64 10 18 31 33 55 41 22 7 47 21 55 31 9 10 22 21 30 24
26 11 101 0 119 -17z m-381 -98 c-6 -16 -36 -34 -44 -26 -3 4 -4 14 -1 23 7
17 51 21 45 3z m-193 -57 c-18 -7 -55 -4 -55 5 0 2 17 4 38 3 28 0 32 -2 17
-8z m514 -149 c7 -35 12 -99 12 -144 0 -48 6 -95 14 -116 22 -52 18 -100 -14
-167 -52 -110 -161 -187 -220 -156 -27 15 -54 67 -46 91 6 19 19 24 114 47 19
4 42 19 53 33 21 28 42 142 33 178 -6 24 -6 24 -45 -12 -22 -20 -45 -36 -51
-36 -44 0 -81 61 -83 136 -1 67 18 89 84 98 53 7 85 35 110 95 16 41 24 31 39
-47z m228 -144 c-2 -13 -4 -5 -4 17 -1 22 1 32 4 23 2 -10 2 -28 0 -40z m-710
-55 c4 -11 -3 -24 -22 -40 -25 -22 -29 -23 -43 -9 -13 13 -13 18 2 40 19 29
53 34 63 9z m154 -143 c15 -50 2 -135 -21 -135 -12 0 -16 16 -18 74 -2 41 -1
80 2 88 10 24 25 13 37 -27z m373 -176 c3 -9 6 -29 6 -46 0 -23 -4 -29 -17
-26 -20 4 -39 48 -30 72 8 21 33 21 41 0z m231 -32 c0 -32 5 -48 20 -58 19
-14 19 -15 -3 -36 -29 -30 -70 -16 -94 32 -10 18 -29 45 -44 59 -26 23 -26 25
-8 38 12 9 39 13 74 11 l55 -3 0 -43z m-956 -83 c29 -23 36 -23 86 1 79 38
127 18 140 -60 5 -31 13 -43 32 -51 31 -12 26 -30 -15 -49 -17 -8 -32 -19 -32
-23 0 -4 21 -17 48 -29 l47 -20 -30 -14 c-34 -15 -113 -18 -134 -5 -9 6 -12
18 -7 36 6 22 2 34 -19 55 l-26 27 27 18 28 18 -23 18 c-13 11 -38 19 -57 19
-93 0 -175 38 -160 75 8 21 59 12 95 -16z m1007 -66 c24 -9 15 -32 -13 -39
-16 -3 -43 -22 -61 -42 -27 -31 -34 -34 -42 -22 -13 20 -13 76 1 102 9 17 17
19 56 13 25 -4 52 -9 59 -12z m-1186 -28 c0 -19 -36 -39 -45 -25 -8 13 13 40
31 40 8 0 14 -7 14 -15z m150 -20 c19 -23 4 -47 -27 -43 -22 2 -29 9 -31 31
-3 23 0 27 21 27 14 0 30 -7 37 -15z m6 -114 c-12 -18 -78 -43 -88 -33 -22 22
0 42 47 42 26 0 44 -4 41 -9z m457 -140 c6 -25 -28 -257 -44 -296 l-12 -30 -9
35 c-11 40 -7 279 5 298 13 19 54 15 60 -7z m-373 -110 c0 -27 -19 -36 -37
-18 -18 18 -9 37 18 37 12 0 19 -7 19 -19z m478 -62 c4 -30 -20 -59 -49 -59
-15 0 -19 7 -19 33 0 39 17 59 45 55 13 -2 21 -12 23 -29z"/>
<path d="M4253 9868 c-106 -114 -194 -304 -234 -506 -7 -36 -26 -87 -45 -119
-53 -87 -44 -95 35 -33 67 53 128 132 184 238 62 118 102 222 122 319 28 128
3 169 -62 101z"/>
<path d="M3420 9362 c-90 -94 -170 -257 -170 -348 0 -54 14 -91 47 -126 29
-30 118 -68 160 -68 l27 0 -40 43 c-61 63 -84 97 -84 122 0 12 19 62 41 111
78 167 109 291 78 309 -6 4 -32 -15 -59 -43z"/>
<path d="M4304 8335 c-20 -20 -24 -29 -15 -38 16 -16 66 12 66 38 0 29 -22 29
-51 0z"/>
<path d="M6794 9336 c-3 -8 20 -69 51 -137 32 -67 63 -140 71 -162 21 -58 18
-119 -7 -151 -25 -32 -41 -84 -33 -109 5 -16 13 -18 41 -14 45 8 71 31 96 87
25 55 26 156 3 220 -24 66 -88 169 -141 228 -47 53 -71 64 -81 38z"/>
<path d="M6074 8289 c-3 -6 1 -18 10 -27 15 -15 17 -15 32 0 19 19 11 38 -16
38 -10 0 -22 -5 -26 -11z"/>
<path d="M5266 7885 c-11 -12 -14 -28 -9 -65 3 -28 2 -50 -3 -50 -5 0 -25 19
-45 42 -39 45 -69 47 -69 5 0 -27 17 -47 42 -47 9 0 27 -11 40 -24 14 -15 53
-33 98 -46 41 -12 99 -35 127 -51 52 -29 83 -37 83 -21 0 5 -18 34 -40 65 -47
65 -49 77 -15 77 34 0 32 10 -12 52 -67 65 -164 96 -197 63z m162 -93 c4 -24
-7 -29 -26 -10 -18 18 -15 40 6 36 9 -2 18 -13 20 -26z"/>
<path d="M5304 7515 c-4 -9 -2 -21 4 -27 15 -15 44 -1 40 19 -4 23 -36 29 -44
8z"/>
<path d="M4747 3383 c-19 -19 9 -133 32 -133 12 0 15 80 5 118 -6 21 -24 29
-37 15z"/>
<path d="M4671 3328 c-19 -53 7 -134 30 -97 16 26 7 129 -11 129 -5 0 -13 -14
-19 -32z"/>
<path d="M5100 3239 c0 -28 19 -61 31 -54 13 9 11 49 -3 63 -18 18 -28 15 -28
-9z"/>
<path d="M8212 8014 c-29 -20 -28 -50 3 -70 45 -29 85 5 71 62 -7 28 -40 32
-74 8z"/>
<path d="M5930 3780 c20 -13 47 -13 55 0 4 6 -9 10 -32 10 -28 0 -34 -3 -23
-10z"/>
<path d="M5610 3481 c-14 -27 -13 -47 5 -81 28 -54 55 -34 55 39 0 56 -38 83
-60 42z"/>
<path d="M5584 3316 c-9 -24 15 -94 38 -111 31 -21 43 -5 28 42 -23 71 -53
103 -66 69z"/>
<path d="M5437 3169 c-35 -27 -51 -88 -43 -168 13 -120 72 -251 114 -251 9 0
26 7 36 15 18 14 22 13 48 -12 45 -43 36 -1 -11 50 -43 47 -71 96 -71 125 0
10 -11 33 -25 52 -15 20 -25 47 -25 67 0 24 7 37 25 49 15 10 25 26 25 39 0
58 -28 71 -73 34z"/>
<path d="M5777 3162 c-21 -23 -13 -32 29 -32 39 0 50 13 28 34 -20 21 -37 20
-57 -2z"/>
<path d="M5755 3050 c-7 -21 10 -60 26 -60 5 0 14 11 21 25 8 19 8 28 -2 40
-17 21 -37 19 -45 -5z"/>
<path d="M5679 2874 c-10 -12 -9 -18 4 -31 13 -13 19 -14 31 -3 21 17 20 27
-3 39 -14 8 -22 7 -32 -5z"/>
</g>
</svg>
